<?xml version="1.0" encoding="UTF-8"?>
<svg id="Layer_1" data-name="Layer 1" xmlns="http://www.w3.org/2000/svg" viewBox="358.88 389.79 582.25 120.42">
  <defs>
    <style>
      .cls-1 {
        fill: #fff;
      }
    </style>
  </defs>
  
  <g>
    <g>
      <path class="cls-1" d="M460.6,429.12h-76.68c-9.41,0-17.04-7.63-17.04-17.04v-14.29h76.68c9.41,0,17.04,7.63,17.04,17.04v14.29Z"/>
      <path class="cls-1" d="M434.25,484.18l-41.04-46.31h23.99c9.41,0,17.04,7.63,17.04,17.04v29.26Z"/>
    </g>
    <g>
      <polygon class="cls-1" points="514.25 404.57 500.92 404.57 500.92 420.93 485.98 420.93 485.98 435.53 500.92 435.53 500.92 475.32 514.25 475.32 514.25 435.53 529.39 435.53 529.39 420.93 514.25 420.93 514.25 404.57"/>
      <path class="cls-1" d="M578.76,430.11c-2.43-3.08-5.4-5.5-8.89-7.27-3.49-1.77-7.33-2.66-11.51-2.66-3.69,0-7.16.73-10.41,2.2-3.26,1.47-6.11,3.5-8.56,6.09-2.45,2.6-4.38,5.6-5.77,9.02-1.4,3.42-2.09,7.08-2.09,10.98,0,5.19,1.21,9.93,3.62,14.23,2.42,4.3,5.65,7.71,9.72,10.25,4.06,2.54,8.56,3.81,13.5,3.81,5.37,0,10.22-1.51,14.55-4.54,4.33-3.02,7.59-6.92,9.77-11.68l-13.37-3.11c-1.25,1.93-2.82,3.46-4.7,4.59-1.88,1.13-3.97,1.67-6.25,1.64-2.22-.03-4.21-.53-5.96-1.48-1.75-.95-3.2-2.22-4.35-3.81-1.15-1.59-1.97-3.39-2.47-5.39h39.24c.61-4.3.36-8.41-.75-12.35-1.11-3.94-2.88-7.44-5.31-10.52M545.16,443.15c.47-2.18,1.33-4.14,2.6-5.88,1.27-1.74,2.82-3.12,4.64-4.13,1.83-1.02,3.81-1.53,5.96-1.53s4.15.52,6.01,1.56c1.86,1.04,3.43,2.42,4.7,4.16,1.27,1.74,2.1,3.68,2.5,5.83h-26.41Z"/>
      <path class="cls-1" d="M634.81,428.55c-1.97-2.43-4.36-4.44-7.17-6.01-2.81-1.57-5.99-2.36-9.53-2.36-3.83,0-7.41.72-10.74,2.15-3.33,1.43-6.26,3.42-8.8,5.96-2.54,2.54-4.52,5.49-5.93,8.86-1.41,3.36-2.12,6.96-2.12,10.79s.74,7.69,2.23,11.17c1.48,3.47,3.54,6.53,6.17,9.18,2.63,2.65,5.68,4.72,9.15,6.23,3.47,1.5,7.19,2.26,11.17,2.26,3.29,0,6.15-.74,8.56-2.23,2.42-1.48,4.36-3.43,5.83-5.82l.59,6.66h13.1v-53.68h-13.1l.59,6.87ZM631.37,456.39c-1.22,2.38-2.9,4.27-5.05,5.66-2.15,1.4-4.62,2.09-7.41,2.09s-5.22-.7-7.49-2.09c-2.27-1.4-4.09-3.27-5.45-5.64-1.36-2.36-2.04-4.99-2.04-7.89s.67-5.53,2.01-7.89c1.34-2.36,3.15-4.25,5.42-5.66,2.27-1.41,4.79-2.12,7.54-2.12s5.22.7,7.38,2.09c2.16,1.4,3.85,3.28,5.07,5.66,1.22,2.38,1.83,5.02,1.83,7.92s-.61,5.48-1.83,7.86"/>
      <path class="cls-1" d="M732.16,423.05c-3.2-1.91-6.77-2.87-10.71-2.87-3.72,0-7.14.88-10.25,2.63-3.11,1.75-5.62,4.1-7.52,7.03-1.86-2.93-4.36-5.28-7.49-7.03-3.13-1.75-6.56-2.63-10.28-2.63-2.93,0-5.67.56-8.21,1.69-2.54,1.13-4.73,2.66-6.55,4.59v-4.78h-13.1v53.68h13.1v-30.44c0-2.08.51-3.98,1.53-5.72,1.02-1.73,2.39-3.13,4.11-4.19,1.72-1.05,3.61-1.58,5.69-1.58s4.03.51,5.74,1.53c1.72,1.02,3.08,2.39,4.08,4.11,1,1.72,1.5,3.67,1.5,5.85v30.44h13.1v-30.44c0-2.18.52-4.13,1.56-5.85,1.04-1.72,2.4-3.09,4.11-4.11,1.7-1.02,3.6-1.53,5.72-1.53s4.02.53,5.72,1.58c1.7,1.06,3.06,2.45,4.08,4.19,1.02,1.74,1.53,3.64,1.53,5.72v30.44h13.1v-33.93c0-3.94-.96-7.51-2.87-10.71-1.92-3.2-4.47-5.76-7.68-7.68"/>
      <path class="cls-1" d="M798.87,432.68c-1.97-3.72-4.7-6.74-8.19-9.05-3.49-2.31-7.61-3.46-12.38-3.46-3.86,0-7.5.73-10.9,2.17-3.4,1.45-6.39,3.47-8.96,6.07-2.58,2.6-4.59,5.59-6.04,8.99-1.45,3.4-2.17,7.05-2.17,10.95s.73,7.62,2.2,11.03c1.47,3.42,3.51,6.42,6.12,9.02,2.61,2.6,5.63,4.63,9.05,6.12,3.42,1.48,7.08,2.23,10.98,2.23,4.72,0,8.78-1.14,12.16-3.41,3.38-2.27,5.99-5.27,7.81-8.99l.16,11h5.8v-53.68h-5.8l.16,11ZM795.91,459.85c-1.58,3.43-3.84,6.16-6.79,8.19-2.95,2.02-6.49,3.03-10.6,3.03s-7.71-1-11.11-3.01c-3.4-2-6.13-4.71-8.19-8.11-2.06-3.4-3.09-7.21-3.09-11.43s1-7.95,3.01-11.38c2-3.44,4.7-6.17,8.08-8.21,3.38-2.04,7.15-3.06,11.3-3.06s7.6,1.01,10.55,3.03c2.95,2.02,5.22,4.74,6.82,8.16,1.59,3.42,2.39,7.24,2.39,11.46s-.79,7.89-2.36,11.33"/>
      <path class="cls-1" d="M861.22,428.58c-2.6-2.6-5.59-4.63-8.99-6.09-3.4-1.47-7.05-2.2-10.95-2.2-4.76,0-8.85,1.14-12.27,3.44-3.42,2.29-6.08,5.3-7.97,9.02v-11.06h-5.8v80.52h5.8v-37.79c1.9,3.72,4.55,6.73,7.97,9.02,3.42,2.29,7.51,3.44,12.27,3.44,3.9,0,7.55-.73,10.95-2.2,3.4-1.47,6.4-3.5,8.99-6.09,2.59-2.59,4.62-5.61,6.09-9.05,1.47-3.44,2.2-7.1,2.2-11.01s-.73-7.55-2.2-10.95c-1.47-3.4-3.5-6.4-6.09-8.99M860.55,460.04c-2.08,3.42-4.8,6.13-8.19,8.13-3.38,2-7.1,3.01-11.14,3.01s-7.65-1.03-10.6-3.09c-2.95-2.06-5.22-4.8-6.79-8.24-1.57-3.44-2.36-7.21-2.36-11.33s.8-7.98,2.39-11.38c1.59-3.4,3.87-6.11,6.82-8.13,2.95-2.02,6.47-3.03,10.55-3.03s7.92,1.02,11.3,3.06c3.38,2.04,6.08,4.77,8.11,8.19,2.02,3.42,3.03,7.18,3.03,11.3s-1.04,8.1-3.11,11.52"/>
      <path class="cls-1" d="M930.93,437.57c-1.47-3.4-3.5-6.4-6.09-8.99-2.6-2.6-5.59-4.63-8.99-6.09-3.4-1.47-7.05-2.2-10.95-2.2-4.76,0-8.85,1.14-12.27,3.44-3.42,2.29-6.08,5.3-7.97,9.02v-11.06h-5.8v80.52h5.8v-37.79c1.9,3.72,4.55,6.73,7.97,9.02,3.42,2.29,7.51,3.44,12.27,3.44,3.9,0,7.55-.73,10.95-2.2,3.4-1.47,6.4-3.5,8.99-6.09,2.59-2.59,4.62-5.61,6.09-9.05,1.47-3.44,2.2-7.1,2.2-11.01s-.73-7.55-2.2-10.95M924.16,460.04c-2.08,3.42-4.8,6.13-8.19,8.13-3.38,2-7.1,3.01-11.14,3.01s-7.65-1.03-10.6-3.09c-2.95-2.06-5.22-4.8-6.79-8.24-1.57-3.44-2.36-7.21-2.36-11.33s.8-7.98,2.39-11.38c1.59-3.4,3.87-6.11,6.82-8.13,2.95-2.02,6.47-3.03,10.55-3.03s7.92,1.02,11.3,3.06c3.38,2.04,6.08,4.77,8.11,8.19,2.02,3.42,3.03,7.18,3.03,11.3s-1.04,8.1-3.11,11.52"/>
    </g>
  </g>
</svg>